<?xml version="1.0" standalone="no"?>
<!DOCTYPE svg PUBLIC "-//W3C//DTD SVG 20010904//EN"
 "http://www.w3.org/TR/2001/REC-SVG-20010904/DTD/svg10.dtd">
<svg version="1.0" xmlns="http://www.w3.org/2000/svg"
 width="1024.000000pt" height="1024.000000pt" viewBox="0 0 1024.000000 1024.000000"
 preserveAspectRatio="xMidYMid meet">
<metadata>
Created by potrace 1.14, written by Peter Selinger 2001-2017
</metadata>
<g transform="translate(0.000000,1024.000000) scale(0.100000,-0.100000)"
fill="#000000" stroke="none">
<path d="M4655 7569 l-35 -31 0 -239 0 -239 29 -32 29 -33 401 -3 c450 -3 460
-2 486 62 22 52 22 444 0 486 -32 61 -20 60 -467 60 l-407 0 -36 -31z m745
-274 l0 -125 -300 0 -300 0 0 125 0 125 300 0 300 0 0 -125z"/>
<path d="M3996 7439 c-63 -15 -153 -68 -202 -121 -54 -58 -101 -154 -114 -234
-14 -82 -13 -2484 0 -2555 15 -76 45 -132 108 -201 59 -63 112 -95 201 -122
49 -14 169 -16 1111 -16 1151 0 1120 -1 1219 57 63 37 127 108 164 183 l32 65
3 724 c3 805 6 764 -64 777 -23 4 -45 2 -61 -7 -54 -29 -53 -12 -53 -756 0
-768 3 -729 -71 -800 -70 -66 -13 -63 -1168 -63 -1155 0 -1104 -3 -1170 62
-18 18 -42 50 -54 72 l-22 41 0 1265 c0 1425 -6 1321 77 1395 67 61 85 65 298
65 l192 0 29 29 c20 20 29 39 29 61 0 22 -9 41 -29 61 l-29 29 -194 -1 c-106
-1 -210 -5 -232 -10z"/>
<path d="M5785 7439 c-32 -19 -45 -41 -45 -78 1 -80 30 -91 245 -91 193 0 216
-5 279 -60 60 -53 79 -101 84 -210 l3 -95 -675 -674 -674 -674 -222 214 c-122
118 -231 218 -244 223 -13 5 -34 6 -47 3 -13 -4 -89 -72 -169 -152 -197 -197
-198 -174 20 -383 91 -86 266 -255 390 -376 124 -120 236 -222 249 -228 14 -5
36 -6 51 -3 36 8 2096 2069 2105 2107 10 39 -6 62 -139 192 -203 200 -187 198
-346 41 -64 -63 -119 -115 -122 -115 -3 0 -9 17 -13 38 -21 114 -124 239 -242
295 l-68 32 -200 3 c-135 1 -206 -1 -220 -9z m1072 -401 l52 -53 -950 -953
-950 -954 -29 24 c-62 51 -580 554 -580 563 0 6 25 35 55 65 l55 54 103 -99
c56 -55 161 -158 233 -229 104 -101 138 -128 159 -128 23 0 170 142 909 881
484 484 883 881 886 881 3 0 29 -24 57 -52z"/>
<path d="M6192 3740 c-114 -24 -174 -108 -150 -212 16 -73 72 -115 191 -144
121 -30 146 -49 127 -98 -12 -34 -39 -46 -100 -46 -56 0 -93 15 -128 53 l-24
25 -44 -26 c-24 -15 -44 -33 -44 -39 0 -24 77 -90 125 -107 56 -19 167 -21
216 -5 83 28 131 90 131 169 0 94 -51 141 -197 181 -116 31 -135 43 -135 85 0
68 126 80 198 19 l29 -25 42 30 c22 17 41 34 41 38 0 15 -65 71 -100 85 -48
20 -126 27 -178 17z"/>
<path d="M2467 3733 c-11 -11 -8 -378 4 -434 23 -107 118 -173 249 -172 85 0
129 15 183 62 63 56 72 97 72 336 l0 210 -39 3 c-22 2 -50 1 -63 -2 l-23 -6 0
-188 c0 -103 -5 -204 -10 -224 -16 -55 -51 -78 -120 -78 -69 0 -104 23 -120
78 -5 20 -10 124 -10 230 l0 192 -58 0 c-32 0 -62 -3 -65 -7z"/>
<path d="M3157 3733 c-4 -3 -7 -138 -7 -300 l0 -293 40 -2 c93 -4 83 -28 84
189 1 106 4 193 9 193 4 0 7 -3 7 -8 0 -7 134 -194 230 -319 40 -53 40 -53 95
-53 l55 0 -2 298 -3 297 -58 0 -57 0 -2 -194 c-2 -177 -3 -192 -17 -173 -9 11
-74 99 -145 196 l-130 176 -46 0 c-26 0 -50 -3 -53 -7z"/>
<path d="M3908 3732 l-58 -3 0 -298 0 -298 63 1 62 1 3 294 c1 162 -1 297 -5
300 -5 3 -34 5 -65 3z"/>
<path d="M4099 3735 c-3 -3 45 -132 106 -288 62 -155 115 -290 118 -300 6 -15
17 -17 73 -15 l66 3 20 50 c35 88 200 519 205 538 5 15 -3 17 -63 17 l-69 0
-79 -231 c-67 -192 -81 -227 -89 -207 -8 21 -91 253 -136 383 l-18 50 -64 3
c-36 2 -67 0 -70 -3z"/>
<path d="M4815 3731 c-3 -2 -5 -136 -5 -298 l0 -293 225 0 225 0 0 50 0 50
-160 0 -160 0 0 75 0 75 140 0 140 0 0 50 0 50 -140 0 -140 0 0 65 0 64 153 3
152 3 3 58 3 59 -216 -3 c-119 -2 -218 -5 -220 -8z"/>
<path d="M5408 3614 c-2 -71 -2 -207 0 -301 l4 -171 59 -4 58 -3 3 104 3 105
55 4 56 3 64 -107 65 -108 68 -3 c37 -2 67 -1 67 3 0 8 -30 57 -91 152 l-48
72 32 14 c71 29 104 99 95 196 -6 63 -42 110 -105 140 -42 20 -68 23 -214 28
l-167 5 -4 -129z m321 -9 c49 -25 57 -87 15 -126 -23 -21 -34 -24 -117 -24
l-92 0 -3 83 -3 82 86 0 c56 0 96 -5 114 -15z"/>
<path d="M7314 3725 c-3 -6 -3 -141 -2 -300 l3 -290 203 -3 202 -2 0 55 0 55
-140 0 -140 0 -2 248 -3 247 -59 0 c-32 0 -60 -5 -62 -10z"/>
<path d="M6811 3708 c-5 -13 -43 -102 -84 -198 -41 -96 -93 -219 -115 -272
l-41 -98 27 -1 c15 -1 45 -2 66 -3 l39 -1 25 68 25 68 131 -3 130 -3 28 -65
27 -65 62 2 c34 2 64 4 66 6 3 4 -64 169 -194 480 l-45 107 -69 0 c-63 0 -70
-2 -78 -22z m122 -220 c21 -54 37 -101 37 -106 0 -8 -156 -9 -164 -1 -2 2 14
53 36 112 23 60 44 105 48 100 4 -4 23 -52 43 -105z"/>
<path d="M2991 2919 c-112 -24 -137 -189 -38 -249 18 -11 50 -20 73 -20 70 0
147 68 95 85 -13 4 -27 -1 -40 -14 -22 -22 -70 -28 -100 -11 -25 13 -45 64
-37 95 16 64 96 89 133 41 19 -24 20 -24 44 -5 l24 18 -26 26 c-30 31 -80 44
-128 34z"/>
<path d="M4147 2920 c-21 -4 -51 -20 -67 -35 -93 -89 -30 -235 100 -235 81 0
140 57 140 135 0 90 -78 151 -173 135z m98 -82 c31 -37 29 -77 -7 -115 -65
-69 -178 20 -134 105 18 35 28 40 78 41 29 1 42 -5 63 -31z"/>
<path d="M6645 2920 c-95 -21 -140 -126 -93 -213 26 -49 115 -71 187 -46 39
14 51 35 51 93 l0 46 -60 0 c-57 0 -60 -1 -60 -25 0 -22 4 -25 35 -25 38 0 40
-2 25 -31 -15 -27 -79 -26 -114 2 -59 46 -18 154 58 152 21 -1 46 -9 57 -19
18 -16 21 -16 36 -1 14 13 14 19 3 32 -27 32 -78 46 -125 35z"/>
<path d="M3190 2785 l0 -136 88 3 c82 3 87 4 90 26 3 21 0 22 -62 22 l-66 0 0
110 0 110 -25 0 -25 0 0 -135z"/>
<path d="M3400 2785 l0 -135 25 0 25 0 0 135 0 135 -25 0 -25 0 0 -135z"/>
<path d="M3512 2788 l3 -133 28 -3 c26 -3 27 -2 27 42 0 43 2 46 28 46 102 0
155 58 121 133 -16 35 -50 47 -135 47 l-76 0 4 -132z m156 54 c5 -34 -15 -52
-59 -52 -39 0 -39 0 -39 41 l0 40 48 -3 c40 -3 47 -6 50 -26z"/>
<path d="M3770 2785 l0 -135 80 0 c52 0 91 5 109 15 46 23 54 66 21 108 -17
22 -18 26 -5 37 16 13 20 57 7 76 -16 24 -54 34 -131 34 l-81 0 0 -135z m166
70 c10 -26 -16 -45 -62 -45 -42 0 -44 1 -44 30 0 29 1 30 50 30 36 0 52 -4 56
-15z m8 -111 c11 -28 -13 -44 -65 -44 -48 0 -49 1 -49 30 0 30 1 30 54 30 41
0 55 -4 60 -16z"/>
<path d="M4441 2898 c-5 -13 -30 -70 -55 -127 -25 -57 -46 -108 -46 -112 0 -5
13 -9 29 -9 23 0 31 6 40 30 10 29 12 30 71 30 59 0 61 -1 71 -30 9 -24 17
-30 40 -30 16 0 29 3 28 8 0 4 -24 63 -53 132 -50 121 -53 125 -84 128 -26 3
-34 -1 -41 -20z m62 -93 l16 -45 -41 0 c-28 0 -39 4 -35 13 2 6 10 29 17 49 8
20 17 35 21 32 4 -2 14 -24 22 -49z"/>
<path d="M4658 2848 c-5 -202 -6 -193 25 -196 26 -3 27 -2 27 47 0 48 2 51 25
51 19 0 32 -11 56 -50 26 -42 36 -50 60 -50 16 0 29 2 29 4 0 3 -14 25 -31 50
l-30 46 27 24 c38 32 38 90 -1 123 -22 20 -37 23 -106 23 l-79 0 -2 -72z m157
-13 c0 -29 -2 -30 -52 -33 l-53 -3 0 36 0 36 53 -3 c50 -3 52 -4 52 -33z"/>
<path d="M4930 2801 c0 -66 -3 -126 -6 -135 -5 -14 4 -16 65 -16 116 0 167 33
178 117 13 95 -53 152 -174 153 l-63 0 0 -119z m160 44 c14 -13 20 -31 20 -61
0 -54 -33 -84 -91 -84 l-39 0 0 86 0 87 45 -6 c25 -2 55 -13 65 -22z"/>
<path d="M5312 2788 l4 -133 27 -3 27 -3 0 88 1 88 33 -79 c23 -54 41 -82 56
-88 19 -7 24 -2 44 45 13 28 29 69 35 90 7 20 15 37 18 37 3 0 4 -39 2 -87
l-4 -88 28 -3 27 -3 0 135 0 136 -34 0 c-33 0 -34 -2 -71 -90 -21 -50 -41 -88
-44 -84 -3 3 -22 42 -41 87 -34 81 -36 82 -73 85 l-38 3 3 -133z"/>
<path d="M5702 2793 c-28 -71 -52 -132 -52 -136 0 -4 12 -7 26 -7 19 0 28 7
37 29 11 30 37 41 98 41 24 0 33 -7 46 -35 13 -28 23 -35 45 -35 15 0 28 1 28
3 0 1 -24 61 -53 132 -53 129 -54 130 -88 133 l-34 3 -53 -128z m111 10 l17
-43 -41 0 c-29 0 -40 4 -36 13 2 6 10 29 18 49 15 43 19 41 42 -19z"/>
<path d="M5960 2785 l0 -135 30 0 29 0 3 86 3 85 63 -85 c49 -67 69 -86 88
-86 l24 0 0 135 0 135 -30 0 -29 0 -3 -85 -3 -84 -59 84 c-50 73 -63 85 -87
85 l-29 0 0 -135z"/>
<path d="M6343 2903 c-4 -10 -28 -67 -55 -128 -26 -60 -48 -113 -48 -117 0 -4
11 -8 25 -8 17 0 29 9 40 30 15 28 19 30 74 30 57 0 59 -1 70 -30 8 -24 16
-30 40 -30 17 0 31 1 31 3 0 1 -24 61 -53 132 -52 126 -55 130 -85 133 -24 2
-34 -2 -39 -15z m58 -98 l17 -45 -40 0 c-28 0 -39 4 -35 13 2 6 10 29 18 49
15 43 17 42 40 -17z"/>
<path d="M6842 2788 l3 -133 98 -3 97 -3 0 26 c0 24 -2 25 -70 25 l-70 0 0 30
0 30 65 0 c63 0 65 1 65 25 0 24 -2 25 -65 25 l-65 0 0 30 0 30 70 0 c68 0 70
1 70 25 l0 25 -100 0 -101 0 3 -132z"/>
<path d="M7090 2784 l0 -135 28 3 c25 3 27 7 30 51 3 38 7 47 22 47 23 0 39
-16 65 -63 15 -29 26 -37 47 -37 16 0 28 2 28 5 0 3 -11 23 -25 45 -14 22 -25
42 -25 44 0 3 11 16 25 30 25 25 32 66 19 101 -12 29 -60 45 -139 45 l-75 0 0
-136z m151 76 c43 -23 9 -70 -52 -70 -39 0 -39 0 -39 40 0 39 1 40 36 40 19 0
44 -5 55 -10z"/>
</g>
</svg>
